<svg xmlns="http://www.w3.org/2000/svg" viewBox="0 0 1600 900" preserveAspectRatio="xMidYMid slice">
<defs>
    <linearGradient id="sky" x1="0" y1="0" x2="0.3" y2="1">
      <stop offset="0%" stop-color="#2c2545"/>
      <stop offset="50%" stop-color="#453A63"/>
      <stop offset="100%" stop-color="#5c4d82"/>
    </linearGradient>
    <radialGradient id="glowPink" cx="50%" cy="50%" r="50%">
      <stop offset="0%" stop-color="#C98FA8" stop-opacity="0.32"/>
      <stop offset="100%" stop-color="#C98FA8" stop-opacity="0"/>
    </radialGradient>
    <radialGradient id="glowPurple" cx="50%" cy="50%" r="50%">
      <stop offset="0%" stop-color="#9385B8" stop-opacity="0.30"/>
      <stop offset="100%" stop-color="#9385B8" stop-opacity="0"/>
    </radialGradient>
  </defs>
<rect width="1600" height="900" fill="url(#sky)"/>
<circle cx="300" cy="230" r="280" fill="url(#glowPink)"/>
<circle cx="1280" cy="640" r="340" fill="url(#glowPurple)"/>
<circle cx="950" cy="140" r="200" fill="url(#glowPink)" opacity="0.55"/>
<circle cx="120" cy="700" r="220" fill="url(#glowPurple)" opacity="0.5"/>
<circle cx="1023.1" cy="22.5" r="1.07" fill="#FFFFFF" opacity="0.4"/>
<circle cx="1082.7" cy="803.0" r="0.75" fill="#FFFFFF" opacity="0.52"/>
<circle cx="149.9" cy="209.4" r="1.62" fill="#C6BEDD" opacity="0.61"/>
<circle cx="671.2" cy="404.3" r="1.07" fill="#FFFFFF" opacity="0.82"/>
<circle cx="1117.0" cy="306.2" r="0.86" fill="#FFFFFF" opacity="0.87"/>
<circle cx="163.5" cy="341.9" r="1.21" fill="#FFFFFF" opacity="0.47"/>
<circle cx="1291.4" cy="656.8" r="1.51" fill="#E3BFCE" opacity="0.88"/>
<circle cx="126.1" cy="263.9" r="1.67" fill="#FFFFFF" opacity="0.83"/>
<circle cx="923.8" cy="634.1" r="0.68" fill="#FFFFFF" opacity="0.4"/>
<circle cx="1576.4" cy="769.8" r="2.07" fill="#E3BFCE" opacity="0.5"/>
<circle cx="1017.1" cy="328.3" r="1.23" fill="#FFFFFF" opacity="0.39"/>
<circle cx="1122.9" cy="615.2" r="0.72" fill="#C6BEDD" opacity="0.66"/>
<circle cx="1166.6" cy="147.1" r="1.25" fill="#C6BEDD" opacity="0.89"/>
<circle cx="351.4" cy="291.9" r="1.91" fill="#FFFFFF" opacity="0.29"/>
<circle cx="1288.1" cy="361.0" r="0.71" fill="#C6BEDD" opacity="0.84"/>
<circle cx="1402.2" cy="283.2" r="1.71" fill="#E3BFCE" opacity="0.51"/>
<circle cx="228.6" cy="125.7" r="1.87" fill="#C6BEDD" opacity="0.6"/>
<circle cx="685.5" cy="525.2" r="1.22" fill="#FFFFFF" opacity="0.9"/>
<circle cx="815.2" cy="81.8" r="0.68" fill="#FFFFFF" opacity="0.32"/>
<circle cx="1267.3" cy="379.9" r="0.71" fill="#E3BFCE" opacity="0.5"/>
<circle cx="846.6" cy="874.0" r="2.06" fill="#FFFFFF" opacity="0.26"/>
<circle cx="1090.7" cy="483.3" r="1.05" fill="#FFFFFF" opacity="0.67"/>
<circle cx="469.6" cy="142.3" r="0.61" fill="#FFFFFF" opacity="0.72"/>
<circle cx="1555.0" cy="685.8" r="1.46" fill="#FFFFFF" opacity="0.32"/>
<circle cx="1346.7" cy="456.9" r="0.94" fill="#FFFFFF" opacity="0.49"/>
<circle cx="863.0" cy="700.8" r="1.5" fill="#FFFFFF" opacity="0.25"/>
<circle cx="781.8" cy="100.7" r="1.22" fill="#FFFFFF" opacity="0.89"/>
<circle cx="383.1" cy="216.8" r="1.56" fill="#E3BFCE" opacity="0.3"/>
<circle cx="1305.6" cy="880.2" r="1.51" fill="#E3BFCE" opacity="0.33"/>
<circle cx="1515.0" cy="148.6" r="1.5" fill="#FFFFFF" opacity="0.64"/>
<circle cx="1486.3" cy="679.7" r="1.77" fill="#E3BFCE" opacity="0.71"/>
<circle cx="1592.2" cy="584.9" r="1.34" fill="#FFFFFF" opacity="0.59"/>
<circle cx="396.6" cy="57.6" r="0.64" fill="#C6BEDD" opacity="0.61"/>
<circle cx="352.3" cy="63.9" r="1.67" fill="#FFFFFF" opacity="0.4"/>
<circle cx="1375.4" cy="63.8" r="1.0" fill="#FFFFFF" opacity="0.68"/>
<circle cx="862.8" cy="651.0" r="2.1" fill="#FFFFFF" opacity="0.62"/>
<circle cx="1255.4" cy="726.7" r="0.92" fill="#E3BFCE" opacity="0.31"/>
<circle cx="566.9" cy="370.0" r="2.07" fill="#FFFFFF" opacity="0.29"/>
<circle cx="97.0" cy="655.4" r="1.96" fill="#FFFFFF" opacity="0.32"/>
<circle cx="304.3" cy="403.8" r="1.32" fill="#FFFFFF" opacity="0.43"/>
<circle cx="1399.2" cy="67.8" r="1.97" fill="#FFFFFF" opacity="0.81"/>
<circle cx="80.9" cy="899.4" r="2.02" fill="#FFFFFF" opacity="0.88"/>
<circle cx="266.1" cy="437.1" r="0.96" fill="#FFFFFF" opacity="0.51"/>
<circle cx="263.4" cy="1.9" r="1.26" fill="#E3BFCE" opacity="0.85"/>
<circle cx="456.4" cy="626.9" r="1.84" fill="#E3BFCE" opacity="0.76"/>
<circle cx="247.7" cy="267.0" r="2.25" fill="#C6BEDD" opacity="0.63"/>
<circle cx="97.5" cy="282.2" r="0.69" fill="#C6BEDD" opacity="0.56"/>
<circle cx="251.9" cy="864.7" r="0.74" fill="#C6BEDD" opacity="0.37"/>
<circle cx="108.7" cy="775.6" r="1.29" fill="#C6BEDD" opacity="0.86"/>
<circle cx="393.9" cy="535.1" r="1.65" fill="#C6BEDD" opacity="0.52"/>
<circle cx="904.4" cy="284.7" r="1.04" fill="#FFFFFF" opacity="0.69"/>
<circle cx="381.9" cy="356.2" r="1.74" fill="#FFFFFF" opacity="0.44"/>
<circle cx="1486.4" cy="842.2" r="0.62" fill="#C6BEDD" opacity="0.65"/>
<circle cx="1593.8" cy="65.9" r="0.96" fill="#FFFFFF" opacity="0.42"/>
<circle cx="1409.4" cy="791.3" r="1.23" fill="#C6BEDD" opacity="0.35"/>
<circle cx="1125.7" cy="550.5" r="2.28" fill="#FFFFFF" opacity="0.68"/>
<circle cx="1068.6" cy="499.1" r="2.18" fill="#FFFFFF" opacity="0.32"/>
<circle cx="423.1" cy="800.7" r="1.86" fill="#FFFFFF" opacity="0.35"/>
<circle cx="967.7" cy="645.9" r="0.95" fill="#FFFFFF" opacity="0.66"/>
<circle cx="808.7" cy="226.0" r="2.14" fill="#E3BFCE" opacity="0.28"/>
<circle cx="1327.0" cy="39.7" r="1.17" fill="#FFFFFF" opacity="0.34"/>
<circle cx="258.5" cy="397.7" r="1.8" fill="#FFFFFF" opacity="0.61"/>
<circle cx="120.4" cy="794.8" r="2.14" fill="#FFFFFF" opacity="0.6"/>
<circle cx="932.0" cy="133.3" r="0.82" fill="#FFFFFF" opacity="0.45"/>
<circle cx="1438.3" cy="189.1" r="1.02" fill="#C6BEDD" opacity="0.32"/>
<circle cx="1414.6" cy="365.7" r="1.66" fill="#FFFFFF" opacity="0.35"/>
<circle cx="1383.4" cy="878.6" r="1.98" fill="#FFFFFF" opacity="0.82"/>
<circle cx="287.0" cy="832.0" r="1.93" fill="#FFFFFF" opacity="0.52"/>
<circle cx="426.9" cy="708.6" r="0.78" fill="#E3BFCE" opacity="0.82"/>
<circle cx="355.9" cy="734.9" r="1.38" fill="#FFFFFF" opacity="0.45"/>
<circle cx="356.7" cy="594.0" r="1.28" fill="#FFFFFF" opacity="0.43"/>
<circle cx="1547.0" cy="251.2" r="1.69" fill="#C6BEDD" opacity="0.51"/>
<circle cx="529.8" cy="24.8" r="2.09" fill="#C6BEDD" opacity="0.42"/>
<circle cx="1540.1" cy="238.9" r="0.78" fill="#FFFFFF" opacity="0.53"/>
<circle cx="698.2" cy="885.8" r="0.8" fill="#FFFFFF" opacity="0.83"/>
<circle cx="407.6" cy="637.9" r="0.6" fill="#C6BEDD" opacity="0.85"/>
<circle cx="1099.0" cy="846.2" r="1.85" fill="#E3BFCE" opacity="0.38"/>
<circle cx="112.0" cy="597.8" r="1.16" fill="#FFFFFF" opacity="0.45"/>
<circle cx="1151.6" cy="270.3" r="1.13" fill="#E3BFCE" opacity="0.52"/>
<circle cx="1115.5" cy="499.0" r="0.93" fill="#E3BFCE" opacity="0.68"/>
<circle cx="1083.7" cy="812.5" r="1.65" fill="#C6BEDD" opacity="0.45"/>
<circle cx="1334.0" cy="273.5" r="0.96" fill="#C6BEDD" opacity="0.76"/>
<circle cx="1047.5" cy="418.5" r="1.35" fill="#E3BFCE" opacity="0.39"/>
<circle cx="1270.0" cy="863.8" r="1.85" fill="#FFFFFF" opacity="0.68"/>
<circle cx="824.7" cy="569.6" r="1.17" fill="#FFFFFF" opacity="0.78"/>
<circle cx="1076.5" cy="202.2" r="0.94" fill="#FFFFFF" opacity="0.27"/>
<circle cx="1574.3" cy="550.1" r="1.91" fill="#C6BEDD" opacity="0.55"/>
<circle cx="311.1" cy="626.7" r="1.44" fill="#FFFFFF" opacity="0.41"/>
<circle cx="1428.3" cy="774.4" r="2.11" fill="#FFFFFF" opacity="0.76"/>
<circle cx="281.4" cy="862.2" r="1.48" fill="#FFFFFF" opacity="0.28"/>
<circle cx="1468.0" cy="109.2" r="0.83" fill="#C6BEDD" opacity="0.55"/>
<circle cx="1580.6" cy="535.9" r="2.22" fill="#C6BEDD" opacity="0.83"/>
<circle cx="1304.0" cy="802.8" r="1.33" fill="#E3BFCE" opacity="0.84"/>
<circle cx="1435.5" cy="669.3" r="1.41" fill="#FFFFFF" opacity="0.42"/>
<circle cx="1343.8" cy="249.6" r="1.92" fill="#FFFFFF" opacity="0.56"/>
<circle cx="439.4" cy="69.7" r="1.09" fill="#FFFFFF" opacity="0.43"/>
<circle cx="1428.8" cy="72.5" r="0.86" fill="#FFFFFF" opacity="0.5"/>
<circle cx="1130.3" cy="57.8" r="1.29" fill="#E3BFCE" opacity="0.6"/>
<circle cx="99.6" cy="749.6" r="1.26" fill="#FFFFFF" opacity="0.75"/>
<circle cx="1370.8" cy="689.0" r="1.25" fill="#FFFFFF" opacity="0.25"/>
<circle cx="477.8" cy="351.0" r="2.12" fill="#C6BEDD" opacity="0.79"/>
<circle cx="1196.0" cy="491.5" r="1.63" fill="#FFFFFF" opacity="0.39"/>
<circle cx="436.7" cy="437.1" r="1.26" fill="#E3BFCE" opacity="0.68"/>
<circle cx="1158.7" cy="756.5" r="2.16" fill="#C6BEDD" opacity="0.89"/>
<circle cx="43.1" cy="354.6" r="1.56" fill="#E3BFCE" opacity="0.27"/>
<circle cx="217.1" cy="415.5" r="0.69" fill="#FFFFFF" opacity="0.5"/>
<circle cx="727.5" cy="303.8" r="2.1" fill="#E3BFCE" opacity="0.43"/>
<circle cx="403.6" cy="73.7" r="0.63" fill="#FFFFFF" opacity="0.6"/>
<circle cx="358.8" cy="61.8" r="2.23" fill="#FFFFFF" opacity="0.28"/>
<circle cx="1519.4" cy="179.4" r="0.63" fill="#FFFFFF" opacity="0.35"/>
<circle cx="757.7" cy="103.0" r="2.21" fill="#FFFFFF" opacity="0.55"/>
<circle cx="1227.0" cy="151.0" r="1.63" fill="#FFFFFF" opacity="0.74"/>
<circle cx="1244.5" cy="147.4" r="1.13" fill="#FFFFFF" opacity="0.63"/>
<circle cx="921.3" cy="817.2" r="1.24" fill="#FFFFFF" opacity="0.86"/>
<circle cx="121.6" cy="621.6" r="1.67" fill="#FFFFFF" opacity="0.32"/>
<circle cx="1360.5" cy="540.4" r="0.81" fill="#FFFFFF" opacity="0.89"/>
<circle cx="555.5" cy="385.5" r="1.23" fill="#FFFFFF" opacity="0.58"/>
<circle cx="20.2" cy="378.1" r="1.43" fill="#FFFFFF" opacity="0.53"/>
<circle cx="1016.9" cy="745.8" r="1.8" fill="#C6BEDD" opacity="0.53"/>
<circle cx="1544.8" cy="243.1" r="1.97" fill="#E3BFCE" opacity="0.6"/>
<circle cx="743.8" cy="743.2" r="1.61" fill="#FFFFFF" opacity="0.46"/>
<circle cx="1329.2" cy="78.0" r="2.1" fill="#E3BFCE" opacity="0.41"/>
<circle cx="911.8" cy="601.4" r="1.17" fill="#FFFFFF" opacity="0.57"/>
<circle cx="290.9" cy="190.9" r="1.96" fill="#C6BEDD" opacity="0.47"/>
<circle cx="1121.9" cy="248.6" r="0.62" fill="#FFFFFF" opacity="0.87"/>
<circle cx="386.2" cy="365.8" r="1.54" fill="#E3BFCE" opacity="0.41"/>
<circle cx="1033.4" cy="441.7" r="1.95" fill="#FFFFFF" opacity="0.31"/>
<circle cx="647.0" cy="219.0" r="1.73" fill="#C6BEDD" opacity="0.49"/>
<circle cx="849.5" cy="383.0" r="1.87" fill="#E3BFCE" opacity="0.47"/>
<circle cx="433.5" cy="226.3" r="0.81" fill="#FFFFFF" opacity="0.38"/>
<circle cx="1188.6" cy="855.8" r="1.77" fill="#E3BFCE" opacity="0.37"/>
<circle cx="442.4" cy="530.6" r="1.89" fill="#FFFFFF" opacity="0.64"/>
<circle cx="1332.2" cy="266.6" r="1.21" fill="#C6BEDD" opacity="0.45"/>
<circle cx="202.5" cy="41.0" r="0.69" fill="#FFFFFF" opacity="0.44"/>
<circle cx="1020.6" cy="677.5" r="0.77" fill="#FFFFFF" opacity="0.26"/>
<circle cx="751.0" cy="396.4" r="0.91" fill="#E3BFCE" opacity="0.28"/>
<circle cx="182.5" cy="58.8" r="1.44" fill="#FFFFFF" opacity="0.63"/>
<circle cx="242.8" cy="730.0" r="2.21" fill="#FFFFFF" opacity="0.31"/>
<circle cx="189.5" cy="688.0" r="1.63" fill="#FFFFFF" opacity="0.76"/>
<circle cx="1241.1" cy="342.3" r="2.14" fill="#C6BEDD" opacity="0.44"/>
<circle cx="1584.1" cy="274.8" r="1.66" fill="#FFFFFF" opacity="0.65"/>
<circle cx="1516.1" cy="187.0" r="0.96" fill="#FFFFFF" opacity="0.68"/>
<circle cx="383.8" cy="496.8" r="0.87" fill="#C6BEDD" opacity="0.52"/>
<circle cx="751.9" cy="29.4" r="1.09" fill="#E3BFCE" opacity="0.43"/>
<circle cx="113.9" cy="210.1" r="1.05" fill="#C6BEDD" opacity="0.76"/>
<circle cx="1057.9" cy="840.3" r="1.32" fill="#FFFFFF" opacity="0.6"/>
<circle cx="1453.5" cy="744.0" r="0.72" fill="#FFFFFF" opacity="0.36"/>
<circle cx="952.1" cy="741.8" r="2.17" fill="#E3BFCE" opacity="0.54"/>
<circle cx="1101.9" cy="629.8" r="2.2" fill="#E3BFCE" opacity="0.58"/>
<circle cx="700.4" cy="538.2" r="2.11" fill="#C6BEDD" opacity="0.73"/>
<circle cx="400.6" cy="82.2" r="2.24" fill="#C6BEDD" opacity="0.79"/>
<circle cx="939.4" cy="18.7" r="1.9" fill="#C6BEDD" opacity="0.78"/>
<circle cx="64.4" cy="680.6" r="1.4" fill="#FFFFFF" opacity="0.67"/>
<circle cx="290.4" cy="526.8" r="1.68" fill="#FFFFFF" opacity="0.57"/>
<circle cx="752.0" cy="367.5" r="1.15" fill="#FFFFFF" opacity="0.32"/>
<circle cx="527.7" cy="624.3" r="1.09" fill="#C6BEDD" opacity="0.86"/>
<circle cx="58.7" cy="79.3" r="1.03" fill="#E3BFCE" opacity="0.33"/>
<circle cx="1383.9" cy="742.4" r="0.6" fill="#E3BFCE" opacity="0.82"/>
<circle cx="661.2" cy="168.8" r="1.22" fill="#E3BFCE" opacity="0.74"/>
<circle cx="1216.0" cy="183.2" r="1.53" fill="#E3BFCE" opacity="0.85"/>
<circle cx="1409.4" cy="436.2" r="0.65" fill="#FFFFFF" opacity="0.66"/>
<circle cx="1135.7" cy="279.7" r="0.62" fill="#FFFFFF" opacity="0.52"/>
<circle cx="1587.6" cy="821.6" r="1.38" fill="#FFFFFF" opacity="0.33"/>
<circle cx="797.4" cy="644.9" r="1.47" fill="#E3BFCE" opacity="0.43"/>
<circle cx="1568.4" cy="219.4" r="1.54" fill="#C6BEDD" opacity="0.5"/>
<circle cx="813.2" cy="791.4" r="2.07" fill="#E3BFCE" opacity="0.43"/>
<circle cx="543.8" cy="708.9" r="1.05" fill="#FFFFFF" opacity="0.25"/>
<circle cx="1340.0" cy="521.9" r="1.72" fill="#E3BFCE" opacity="0.81"/>
<circle cx="861.7" cy="310.6" r="1.54" fill="#E3BFCE" opacity="0.6"/>
<circle cx="1492.6" cy="782.6" r="2.27" fill="#E3BFCE" opacity="0.41"/>
<g transform="translate(180,120) scale(0.55)"><path d="M0,-16 C2,-5 5,-2 16,0 C5,2 2,5 0,16 C-2,5 -5,2 -16,0 C-5,-2 -2,-5 0,-16 Z" fill="#FFFFFF" opacity="0.85"/></g>
<g transform="translate(560,90) scale(0.4)"><path d="M0,-16 C2,-5 5,-2 16,0 C5,2 2,5 0,16 C-2,5 -5,2 -16,0 C-5,-2 -2,-5 0,-16 Z" fill="#E3BFCE" opacity="0.8"/></g>
<g transform="translate(980,260) scale(0.6)"><path d="M0,-16 C2,-5 5,-2 16,0 C5,2 2,5 0,16 C-2,5 -5,2 -16,0 C-5,-2 -2,-5 0,-16 Z" fill="#FFFFFF" opacity="0.75"/></g>
<g transform="translate(1350,180) scale(0.45)"><path d="M0,-16 C2,-5 5,-2 16,0 C5,2 2,5 0,16 C-2,5 -5,2 -16,0 C-5,-2 -2,-5 0,-16 Z" fill="#C6BEDD" opacity="0.8"/></g>
<g transform="translate(220,520) scale(0.5)"><path d="M0,-16 C2,-5 5,-2 16,0 C5,2 2,5 0,16 C-2,5 -5,2 -16,0 C-5,-2 -2,-5 0,-16 Z" fill="#FFFFFF" opacity="0.7"/></g>
<g transform="translate(760,600) scale(0.4)"><path d="M0,-16 C2,-5 5,-2 16,0 C5,2 2,5 0,16 C-2,5 -5,2 -16,0 C-5,-2 -2,-5 0,-16 Z" fill="#E3BFCE" opacity="0.75"/></g>
<g transform="translate(1180,720) scale(0.55)"><path d="M0,-16 C2,-5 5,-2 16,0 C5,2 2,5 0,16 C-2,5 -5,2 -16,0 C-5,-2 -2,-5 0,-16 Z" fill="#FFFFFF" opacity="0.8"/></g>
<g transform="translate(1480,500) scale(0.35)"><path d="M0,-16 C2,-5 5,-2 16,0 C5,2 2,5 0,16 C-2,5 -5,2 -16,0 C-5,-2 -2,-5 0,-16 Z" fill="#C6BEDD" opacity="0.7"/></g>
<g transform="translate(60,300) scale(0.35)"><path d="M0,-16 C2,-5 5,-2 16,0 C5,2 2,5 0,16 C-2,5 -5,2 -16,0 C-5,-2 -2,-5 0,-16 Z" fill="#FFFFFF" opacity="0.65"/></g>
</svg>