<svg xmlns="http://www.w3.org/2000/svg" viewBox="0 0 220 200">
  <g transform="translate(150,42)">
    <path d="M0,-16 C2,-5 5,-2 16,0 C5,2 2,5 0,16 C-2,5 -5,2 -16,0 C-5,-2 -2,-5 0,-16 Z" fill="#E3BFCE" opacity="0.95"/>
  </g>
  <g transform="translate(96,82) scale(0.65)">
    <path d="M0,-16 C2,-5 5,-2 16,0 C5,2 2,5 0,16 C-2,5 -5,2 -16,0 C-5,-2 -2,-5 0,-16 Z" fill="#C6BEDD" opacity="0.9"/>
  </g>
  <g transform="translate(190,22) scale(0.5)">
    <path d="M0,-16 C2,-5 5,-2 16,0 C5,2 2,5 0,16 C-2,5 -5,2 -16,0 C-5,-2 -2,-5 0,-16 Z" fill="#C98FA8" opacity="0.95"/>
  </g>
  <circle cx="58" cy="142" r="3" fill="#C6BEDD" opacity="0.8"/>
  <circle cx="182" cy="112" r="2.5" fill="#E3BFCE" opacity="0.75"/>
  <circle cx="38" cy="38" r="2" fill="#9385B8" opacity="0.7"/>
</svg>
